<?xml version="1.0" encoding="UTF-8" standalone="no"?>
<!DOCTYPE svg PUBLIC "-//W3C//DTD SVG 1.1//EN"
 "http://www.w3.org/Graphics/SVG/1.1/DTD/svg11.dtd">
<!-- Generated by graphviz version 14.1.1 (20251213.1925)
 -->
<!-- Title: Architecture Pages: 1 -->
<svg width="1146pt" height="416pt"
 viewBox="0.00 0.00 1146.00 416.00" xmlns="http://www.w3.org/2000/svg" xmlns:xlink="http://www.w3.org/1999/xlink">
<g id="graph0" class="graph" transform="scale(1 1) rotate(0) translate(25.2 390.65)">
<title>Architecture</title>
<polygon fill="white" stroke="none" points="-25.2,25.2 -25.2,-390.65 1121.2,-390.65 1121.2,25.2 -25.2,25.2"/>
<g id="clust1" class="cluster">
<title>cluster_source</title>
<path fill="white" stroke="#d1d5db" d="M20,-249.3C20,-249.3 182,-249.3 182,-249.3 188,-249.3 194,-255.3 194,-261.3 194,-261.3 194,-322.95 194,-322.95 194,-328.95 188,-334.95 182,-334.95 182,-334.95 20,-334.95 20,-334.95 14,-334.95 8,-328.95 8,-322.95 8,-322.95 8,-261.3 8,-261.3 8,-255.3 14,-249.3 20,-249.3"/>
<text xml:space="preserve" text-anchor="middle" x="59.5" y="-319.55" font-family="Segoe UI" font-size="12.00">L0 • Data Source</text>
</g>
<g id="clust2" class="cluster">
<title>cluster_storage</title>
<path fill="white" stroke="#d1d5db" d="M248,-102.4C248,-102.4 1076,-102.4 1076,-102.4 1082,-102.4 1088,-108.4 1088,-114.4 1088,-114.4 1088,-206.05 1088,-206.05 1088,-212.05 1082,-218.05 1076,-218.05 1076,-218.05 248,-218.05 248,-218.05 242,-218.05 236,-212.05 236,-206.05 236,-206.05 236,-114.4 236,-114.4 236,-108.4 242,-102.4 248,-102.4"/>
<text xml:space="preserve" text-anchor="middle" x="320.88" y="-202.65" font-family="Segoe UI" font-size="12.00">L2 • Storage Layers (Artifacts)</text>
</g>
<g id="clust4" class="cluster">
<title>cluster_orch</title>
<path fill="white" stroke="#d1d5db" d="M226,-226.8C226,-226.8 804,-226.8 804,-226.8 810,-226.8 816,-232.8 816,-238.8 816,-238.8 816,-345.45 816,-345.45 816,-351.45 810,-357.45 804,-357.45 804,-357.45 226,-357.45 226,-357.45 220,-357.45 214,-351.45 214,-345.45 214,-345.45 214,-238.8 214,-238.8 214,-232.8 220,-226.8 226,-226.8"/>
<text xml:space="preserve" text-anchor="middle" x="314.25" y="-342.05" font-family="Segoe UI" font-size="12.00">L1 • Orchestration (Apache Airflow)</text>
</g>
<g id="clust6" class="cluster">
<title>cluster_serving</title>
<path fill="white" stroke="#d1d5db" d="M496,-8C496,-8 676,-8 676,-8 682,-8 688,-14 688,-20 688,-20 688,-81.65 688,-81.65 688,-87.65 682,-93.65 676,-93.65 676,-93.65 496,-93.65 496,-93.65 490,-93.65 484,-87.65 484,-81.65 484,-81.65 484,-20 484,-20 484,-14 490,-8 496,-8"/>
<text xml:space="preserve" text-anchor="middle" x="551.62" y="-78.25" font-family="Segoe UI" font-size="12.00">L3 • Serving (Optional)</text>
</g>
<!-- A -->
<g id="node1" class="node">
<title>A</title>
<path fill="white" stroke="#111827" stroke-width="1.4" d="M173.96,-301.7C173.96,-301.7 28.04,-301.7 28.04,-301.7 22.04,-301.7 16.04,-295.7 16.04,-289.7 16.04,-289.7 16.04,-269.3 16.04,-269.3 16.04,-263.3 22.04,-257.3 28.04,-257.3 28.04,-257.3 173.96,-257.3 173.96,-257.3 179.96,-257.3 185.96,-263.3 185.96,-269.3 185.96,-269.3 185.96,-289.7 185.96,-289.7 185.96,-295.7 179.96,-301.7 173.96,-301.7"/>
<text xml:space="preserve" text-anchor="middle" x="101" y="-284.05" font-family="Segoe UI" font-size="11.00">FiveThirtyEight Polling Export</text>
<text xml:space="preserve" text-anchor="middle" x="101" y="-269.05" font-family="Segoe UI" font-size="11.00">(CSV Snapshot)</text>
</g>
<!-- R -->
<g id="node2" class="node">
<title>R</title>
<path fill="white" stroke="#111827" stroke-width="1.4" d="M350.08,-177.3C350.08,-177.3 255.92,-177.3 255.92,-177.3 249.92,-177.3 243.92,-171.3 243.92,-165.3 243.92,-165.3 243.92,-129.9 243.92,-129.9 243.92,-123.9 249.92,-117.9 255.92,-117.9 255.92,-117.9 350.08,-117.9 350.08,-117.9 356.08,-117.9 362.08,-123.9 362.08,-129.9 362.08,-129.9 362.08,-165.3 362.08,-165.3 362.08,-171.3 356.08,-177.3 350.08,-177.3"/>
<text xml:space="preserve" text-anchor="middle" x="303" y="-159.65" font-family="Segoe UI" font-size="11.00">RAW</text>
<text xml:space="preserve" text-anchor="middle" x="303" y="-144.65" font-family="Segoe UI" font-size="11.00">/data/raw/</text>
<text xml:space="preserve" text-anchor="middle" x="303" y="-129.65" font-family="Segoe UI" font-size="11.00">president_polls.csv</text>
</g>
<!-- A&#45;&gt;R -->
<g id="edge1" class="edge">
<title>A&#45;&gt;R</title>
<path fill="none" stroke="#111827" stroke-width="1.2" d="M101,-256.89C101,-219.3 101,-148 101,-148 101,-148 233.67,-148 233.67,-148"/>
<polygon fill="#111827" stroke="#111827" stroke-width="1.2" points="233.67,-150.8 241.67,-148 233.67,-145.2 233.67,-150.8"/>
</g>
<!-- D1 -->
<g id="node8" class="node">
<title>D1</title>
<path fill="#f8fafc" stroke="#111827" stroke-width="1.4" d="M562.34,-324.2C562.34,-324.2 409.67,-324.2 409.67,-324.2 403.67,-324.2 397.67,-318.2 397.67,-312.2 397.67,-312.2 397.67,-246.8 397.67,-246.8 397.67,-240.8 403.67,-234.8 409.67,-234.8 409.67,-234.8 562.34,-234.8 562.34,-234.8 568.34,-234.8 574.34,-240.8 574.34,-246.8 574.34,-246.8 574.34,-312.2 574.34,-312.2 574.34,-318.2 568.34,-324.2 562.34,-324.2"/>
<text xml:space="preserve" text-anchor="middle" x="486" y="-306.55" font-family="Segoe UI" font-size="11.00">DAG 1: polling_intelligence_etl</text>
<text xml:space="preserve" text-anchor="middle" x="486" y="-291.55" font-family="Segoe UI" font-size="11.00">• ingest_raw</text>
<text xml:space="preserve" text-anchor="middle" x="486" y="-276.55" font-family="Segoe UI" font-size="11.00">• clean_transform</text>
<text xml:space="preserve" text-anchor="middle" x="486" y="-261.55" font-family="Segoe UI" font-size="11.00">• build_marts (TaskGroup)</text>
<text xml:space="preserve" text-anchor="middle" x="486" y="-246.55" font-family="Segoe UI" font-size="11.00">• build_ml_features</text>
</g>
<!-- R&#45;&gt;D1 -->
<g id="edge2" class="edge">
<title>R&#45;&gt;D1</title>
<path fill="none" stroke="#111827" stroke-width="1.2" d="M322.61,-177.99C322.61,-205.58 322.61,-242 322.61,-242 322.61,-242 387.32,-242 387.32,-242"/>
<polygon fill="#111827" stroke="#111827" stroke-width="1.2" points="387.32,-244.8 395.32,-242 387.32,-239.2 387.32,-244.8"/>
</g>
<!-- C -->
<g id="node3" class="node">
<title>C</title>
<path fill="white" stroke="#111827" stroke-width="1.4" d="M629.34,-177.3C629.34,-177.3 542.66,-177.3 542.66,-177.3 536.66,-177.3 530.66,-171.3 530.66,-165.3 530.66,-165.3 530.66,-129.9 530.66,-129.9 530.66,-123.9 536.66,-117.9 542.66,-117.9 542.66,-117.9 629.34,-117.9 629.34,-117.9 635.34,-117.9 641.34,-123.9 641.34,-129.9 641.34,-129.9 641.34,-165.3 641.34,-165.3 641.34,-171.3 635.34,-177.3 629.34,-177.3"/>
<text xml:space="preserve" text-anchor="middle" x="586" y="-159.65" font-family="Segoe UI" font-size="11.00">CURATED</text>
<text xml:space="preserve" text-anchor="middle" x="586" y="-144.65" font-family="Segoe UI" font-size="11.00">/data/processed/</text>
<text xml:space="preserve" text-anchor="middle" x="586" y="-129.65" font-family="Segoe UI" font-size="11.00">polls_cleaned.csv</text>
</g>
<!-- D2 -->
<g id="node9" class="node">
<title>D2</title>
<path fill="#f8fafc" stroke="#111827" stroke-width="1.4" d="M795.84,-316.7C795.84,-316.7 622.16,-316.7 622.16,-316.7 616.16,-316.7 610.16,-310.7 610.16,-304.7 610.16,-304.7 610.16,-254.3 610.16,-254.3 610.16,-248.3 616.16,-242.3 622.16,-242.3 622.16,-242.3 795.84,-242.3 795.84,-242.3 801.84,-242.3 807.84,-248.3 807.84,-254.3 807.84,-254.3 807.84,-304.7 807.84,-304.7 807.84,-310.7 801.84,-316.7 795.84,-316.7"/>
<text xml:space="preserve" text-anchor="middle" x="709" y="-299.05" font-family="Segoe UI" font-size="11.00">DAG 2: polling_baseline_prediction</text>
<text xml:space="preserve" text-anchor="middle" x="709" y="-284.05" font-family="Segoe UI" font-size="11.00">• run_baseline</text>
<text xml:space="preserve" text-anchor="middle" x="709" y="-269.05" font-family="Segoe UI" font-size="11.00">• write prediction summary</text>
<text xml:space="preserve" text-anchor="middle" x="709" y="-254.05" font-family="Segoe UI" font-size="11.00">• generate visualization</text>
</g>
<!-- C&#45;&gt;D2 -->
<g id="edge6" class="edge">
<title>C&#45;&gt;D2</title>
<path fill="none" stroke="#111827" stroke-width="1.2" d="M630.94,-177.86C630.94,-177.86 630.94,-232.01 630.94,-232.01"/>
<polygon fill="#111827" stroke="#111827" stroke-width="1.2" points="628.15,-232.01 630.95,-240.01 633.75,-232.01 628.15,-232.01"/>
</g>
<!-- S -->
<g id="node10" class="node">
<title>S</title>
<path fill="white" stroke="#111827" stroke-width="1.4" d="M667.59,-60.4C667.59,-60.4 504.42,-60.4 504.42,-60.4 498.42,-60.4 492.42,-54.4 492.42,-48.4 492.42,-48.4 492.42,-28 492.42,-28 492.42,-22 498.42,-16 504.42,-16 504.42,-16 667.59,-16 667.59,-16 673.59,-16 679.59,-22 679.59,-28 679.59,-28 679.59,-48.4 679.59,-48.4 679.59,-54.4 673.59,-60.4 667.59,-60.4"/>
<text xml:space="preserve" text-anchor="middle" x="586" y="-42.75" font-family="Segoe UI" font-size="11.00">Streamlit Dashboard</text>
<text xml:space="preserve" text-anchor="middle" x="586" y="-27.75" font-family="Segoe UI" font-size="11.00">(reads curated + marts + reports)</text>
</g>
<!-- C&#45;&gt;S -->
<g id="edge10" class="edge">
<title>C&#45;&gt;S</title>
<path fill="none" stroke="#111827" stroke-width="1.2" d="M586,-117.42C586,-117.42 586,-70.81 586,-70.81"/>
<polygon fill="#111827" stroke="#111827" stroke-width="1.2" points="588.8,-70.81 586,-62.81 583.2,-70.81 588.8,-70.81"/>
</g>
<!-- M -->
<g id="node4" class="node">
<title>M</title>
<path fill="white" stroke="#111827" stroke-width="1.4" d="M482.21,-184.8C482.21,-184.8 409.79,-184.8 409.79,-184.8 403.79,-184.8 397.79,-178.8 397.79,-172.8 397.79,-172.8 397.79,-122.4 397.79,-122.4 397.79,-116.4 403.79,-110.4 409.79,-110.4 409.79,-110.4 482.21,-110.4 482.21,-110.4 488.21,-110.4 494.21,-116.4 494.21,-122.4 494.21,-122.4 494.21,-172.8 494.21,-172.8 494.21,-178.8 488.21,-184.8 482.21,-184.8"/>
<text xml:space="preserve" text-anchor="middle" x="446" y="-167.15" font-family="Segoe UI" font-size="11.00">MARTS</text>
<text xml:space="preserve" text-anchor="middle" x="446" y="-152.15" font-family="Segoe UI" font-size="11.00">/data/marts/</text>
<text xml:space="preserve" text-anchor="middle" x="446" y="-137.15" font-family="Segoe UI" font-size="11.00">mart_*.csv</text>
<text xml:space="preserve" text-anchor="middle" x="446" y="-122.15" font-family="Segoe UI" font-size="11.00">+ feature mart</text>
</g>
<!-- M&#45;&gt;S -->
<g id="edge11" class="edge">
<title>M&#45;&gt;S</title>
<path fill="none" stroke="#111827" stroke-width="1.2" d="M494.63,-113C504.76,-113 512.44,-113 512.44,-113 512.44,-113 512.44,-70.87 512.44,-70.87"/>
<polygon fill="#111827" stroke="#111827" stroke-width="1.2" points="515.24,-70.87 512.44,-62.87 509.64,-70.87 515.24,-70.87"/>
</g>
<!-- P -->
<g id="node5" class="node">
<title>P</title>
<path fill="white" stroke="#111827" stroke-width="1.4" d="M808.46,-184.8C808.46,-184.8 689.54,-184.8 689.54,-184.8 683.54,-184.8 677.54,-178.8 677.54,-172.8 677.54,-172.8 677.54,-122.4 677.54,-122.4 677.54,-116.4 683.54,-110.4 689.54,-110.4 689.54,-110.4 808.46,-110.4 808.46,-110.4 814.46,-110.4 820.46,-116.4 820.46,-122.4 820.46,-122.4 820.46,-172.8 820.46,-172.8 820.46,-178.8 814.46,-184.8 808.46,-184.8"/>
<text xml:space="preserve" text-anchor="middle" x="749" y="-167.15" font-family="Segoe UI" font-size="11.00">REPORTS</text>
<text xml:space="preserve" text-anchor="middle" x="749" y="-152.15" font-family="Segoe UI" font-size="11.00">/reports/</text>
<text xml:space="preserve" text-anchor="middle" x="749" y="-137.15" font-family="Segoe UI" font-size="11.00">prediction_summary.csv</text>
<text xml:space="preserve" text-anchor="middle" x="749" y="-122.15" font-family="Segoe UI" font-size="11.00">winner.txt</text>
</g>
<!-- V -->
<g id="node6" class="node">
<title>V</title>
<path fill="white" stroke="#111827" stroke-width="1.4" d="M1067.59,-177.3C1067.59,-177.3 868.41,-177.3 868.41,-177.3 862.41,-177.3 856.41,-171.3 856.41,-165.3 856.41,-165.3 856.41,-129.9 856.41,-129.9 856.41,-123.9 862.41,-117.9 868.41,-117.9 868.41,-117.9 1067.59,-117.9 1067.59,-117.9 1073.59,-117.9 1079.59,-123.9 1079.59,-129.9 1079.59,-129.9 1079.59,-165.3 1079.59,-165.3 1079.59,-171.3 1073.59,-177.3 1067.59,-177.3"/>
<text xml:space="preserve" text-anchor="middle" x="968" y="-159.65" font-family="Segoe UI" font-size="11.00">VISUALS</text>
<text xml:space="preserve" text-anchor="middle" x="968" y="-144.65" font-family="Segoe UI" font-size="11.00">/assets/</text>
<text xml:space="preserve" text-anchor="middle" x="968" y="-129.65" font-family="Segoe UI" font-size="11.00">candidates_probability_visualization.png</text>
</g>
<!-- P&#45;&gt;V -->
<g id="edge9" class="edge">
<title>P&#45;&gt;V</title>
<path fill="none" stroke="#111827" stroke-width="1.2" d="M821.01,-148C821.01,-148 846.09,-148 846.09,-148"/>
<polygon fill="#111827" stroke="#111827" stroke-width="1.2" points="846.09,-150.8 854.09,-148 846.09,-145.2 846.09,-150.8"/>
</g>
<!-- P&#45;&gt;S -->
<g id="edge12" class="edge">
<title>P&#45;&gt;S</title>
<path fill="none" stroke="#111827" stroke-width="1.2" d="M677.13,-115C666.72,-115 659.44,-115 659.44,-115 659.44,-115 659.44,-70.64 659.44,-70.64"/>
<polygon fill="#111827" stroke="#111827" stroke-width="1.2" points="662.24,-70.64 659.44,-62.64 656.64,-70.64 662.24,-70.64"/>
</g>
<!-- AF -->
<g id="node7" class="node">
<title>AF</title>
<path fill="#f3f4f6" stroke="#111827" stroke-width="1.4" d="M349.96,-309.2C349.96,-309.2 234.04,-309.2 234.04,-309.2 228.04,-309.2 222.04,-303.2 222.04,-297.2 222.04,-297.2 222.04,-261.8 222.04,-261.8 222.04,-255.8 228.04,-249.8 234.04,-249.8 234.04,-249.8 349.96,-249.8 349.96,-249.8 355.96,-249.8 361.96,-255.8 361.96,-261.8 361.96,-261.8 361.96,-297.2 361.96,-297.2 361.96,-303.2 355.96,-309.2 349.96,-309.2"/>
<text xml:space="preserve" text-anchor="middle" x="292" y="-291.55" font-family="Segoe UI" font-size="11.00">Airflow</text>
<text xml:space="preserve" text-anchor="middle" x="292" y="-276.55" font-family="Segoe UI" font-size="11.00">Scheduler + Webserver</text>
<text xml:space="preserve" text-anchor="middle" x="292" y="-261.55" font-family="Segoe UI" font-size="11.00">(TaskFlow API)</text>
</g>
<!-- AF&#45;&gt;D1 -->
<g id="edge3" class="edge">
<title>AF&#45;&gt;D1</title>
<path fill="none" stroke="#111827" stroke-width="1.2" d="M362.59,-280C362.59,-280 387.44,-280 387.44,-280"/>
<polygon fill="#111827" stroke="#111827" stroke-width="1.2" points="387.44,-282.8 395.44,-280 387.44,-277.2 387.44,-282.8"/>
</g>
<!-- AF&#45;&gt;D2 -->
<g id="edge7" class="edge">
<title>AF&#45;&gt;D2</title>
<path fill="none" stroke="#111827" stroke-width="1.2" d="M283.26,-249.22C283.26,-230.49 283.26,-210 283.26,-210 283.26,-210 620.56,-210 620.56,-210 620.56,-210 620.56,-232.09 620.56,-232.09"/>
<polygon fill="#111827" stroke="#111827" stroke-width="1.2" points="617.76,-232.09 620.56,-240.09 623.36,-232.09 617.76,-232.09"/>
</g>
<!-- D1&#45;&gt;C -->
<g id="edge4" class="edge">
<title>D1&#45;&gt;C</title>
<path fill="none" stroke="#111827" stroke-width="1.2" d="M552.5,-234.11C552.5,-234.11 552.5,-187.56 552.5,-187.56"/>
<polygon fill="#111827" stroke="#111827" stroke-width="1.2" points="555.3,-187.56 552.5,-179.56 549.7,-187.56 555.3,-187.56"/>
</g>
<!-- D1&#45;&gt;M -->
<g id="edge5" class="edge">
<title>D1&#45;&gt;M</title>
<path fill="none" stroke="#111827" stroke-width="1.2" d="M446,-234.11C446,-234.11 446,-195.01 446,-195.01"/>
<polygon fill="#111827" stroke="#111827" stroke-width="1.2" points="448.8,-195.01 446,-187.01 443.2,-195.01 448.8,-195.01"/>
</g>
<!-- D2&#45;&gt;P -->
<g id="edge8" class="edge">
<title>D2&#45;&gt;P</title>
<path fill="none" stroke="#111827" stroke-width="1.2" d="M742.69,-241.7C742.69,-241.7 742.69,-195.22 742.69,-195.22"/>
<polygon fill="#111827" stroke="#111827" stroke-width="1.2" points="745.49,-195.22 742.69,-187.22 739.89,-195.22 745.49,-195.22"/>
</g>
</g>
</svg>
