<?xml version="1.0" encoding="UTF-8" standalone="no"?>
<!DOCTYPE svg PUBLIC "-//W3C//DTD SVG 1.1//EN"
 "http://www.w3.org/Graphics/SVG/1.1/DTD/svg11.dtd">
<!-- Generated by graphviz version 14.1.1 (20251213.1925)
 -->
<!-- Title: DataLineage Pages: 1 -->
<svg width="1770pt" height="634pt"
 viewBox="0.00 0.00 1770.00 634.00" xmlns="http://www.w3.org/2000/svg" xmlns:xlink="http://www.w3.org/1999/xlink">
<g id="graph0" class="graph" transform="scale(1 1) rotate(0) translate(28.8 604.8)">
<title>DataLineage</title>
<polygon fill="white" stroke="none" points="-28.8,28.8 -28.8,-604.8 1741.3,-604.8 1741.3,28.8 -28.8,28.8"/>
<g id="clust1" class="cluster">
<title>cluster_now</title>
<path fill="white" stroke="#d1d5db" d="M39.88,-223C39.88,-223 1188.5,-223 1188.5,-223 1194.5,-223 1200.5,-229 1200.5,-235 1200.5,-235 1200.5,-556 1200.5,-556 1200.5,-562 1194.5,-568 1188.5,-568 1188.5,-568 39.88,-568 39.88,-568 33.88,-568 27.88,-562 27.88,-556 27.88,-556 27.88,-235 27.88,-235 27.88,-229 33.88,-223 39.88,-223"/>
<text xml:space="preserve" text-anchor="middle" x="154.38" y="-550.7" font-family="Segoe UI" font-size="14.00">Implemented Lineage (Batch Pipeline)</text>
</g>
<g id="clust5" class="cluster">
<title>cluster_future</title>
<path fill="white" stroke="#d1d5db" d="M20,-8C20,-8 1692.5,-8 1692.5,-8 1698.5,-8 1704.5,-14 1704.5,-20 1704.5,-20 1704.5,-203 1704.5,-203 1704.5,-209 1698.5,-215 1692.5,-215 1692.5,-215 20,-215 20,-215 14,-215 8,-209 8,-203 8,-203 8,-20 8,-20 8,-14 14,-8 20,-8"/>
<text xml:space="preserve" text-anchor="middle" x="173.5" y="-197.7" font-family="Segoe UI" font-size="14.00">Future Architecture (Designed • Not Implemented)</text>
</g>
<!-- raw -->
<g id="node1" class="node">
<title>raw</title>
<path fill="white" stroke="#111827" stroke-width="1.6" d="M164.88,-310.96C164.88,-310.96 47.88,-310.96 47.88,-310.96 41.88,-310.96 35.88,-304.96 35.88,-298.96 35.88,-298.96 35.88,-243.04 35.88,-243.04 35.88,-237.04 41.88,-231.04 47.88,-231.04 47.88,-231.04 164.88,-231.04 164.88,-231.04 170.88,-231.04 176.88,-237.04 176.88,-243.04 176.88,-243.04 176.88,-298.96 176.88,-298.96 176.88,-304.96 170.88,-310.96 164.88,-310.96"/>
<text xml:space="preserve" text-anchor="middle" x="106.38" y="-285.65" font-family="Segoe UI" font-size="13.00">RAW</text>
<text xml:space="preserve" text-anchor="middle" x="106.38" y="-267.65" font-family="Segoe UI" font-size="13.00">president_polls.csv</text>
<text xml:space="preserve" text-anchor="middle" x="106.38" y="-249.65" font-family="Segoe UI" font-size="13.00">(data/raw/)</text>
</g>
<!-- curated -->
<g id="node2" class="node">
<title>curated</title>
<path fill="white" stroke="#111827" stroke-width="1.6" d="M162.62,-469.96C162.62,-469.96 50.12,-469.96 50.12,-469.96 44.12,-469.96 38.12,-463.96 38.12,-457.96 38.12,-457.96 38.12,-402.04 38.12,-402.04 38.12,-396.04 44.12,-390.04 50.12,-390.04 50.12,-390.04 162.62,-390.04 162.62,-390.04 168.62,-390.04 174.62,-396.04 174.62,-402.04 174.62,-402.04 174.62,-457.96 174.62,-457.96 174.62,-463.96 168.62,-469.96 162.62,-469.96"/>
<text xml:space="preserve" text-anchor="middle" x="106.38" y="-444.65" font-family="Segoe UI" font-size="13.00">CURATED</text>
<text xml:space="preserve" text-anchor="middle" x="106.38" y="-426.65" font-family="Segoe UI" font-size="13.00">polls_cleaned.csv</text>
<text xml:space="preserve" text-anchor="middle" x="106.38" y="-408.65" font-family="Segoe UI" font-size="13.00">(data/processed/)</text>
</g>
<!-- raw&#45;&gt;curated -->
<g id="edge1" class="edge">
<title>raw&#45;&gt;curated</title>
<path fill="none" stroke="#111827" stroke-width="1.2" d="M106.5,-311.53C106.5,-311.53 106.5,-379.45 106.5,-379.45"/>
<polygon fill="#111827" stroke="#111827" stroke-width="1.2" points="103.7,-379.45 106.5,-387.45 109.3,-379.45 103.7,-379.45"/>
</g>
<!-- marts -->
<g id="node3" class="node">
<title>marts</title>
<path fill="white" stroke="#111827" stroke-width="1.6" d="M513,-310.96C513,-310.96 391.5,-310.96 391.5,-310.96 385.5,-310.96 379.5,-304.96 379.5,-298.96 379.5,-298.96 379.5,-243.04 379.5,-243.04 379.5,-237.04 385.5,-231.04 391.5,-231.04 391.5,-231.04 513,-231.04 513,-231.04 519,-231.04 525,-237.04 525,-243.04 525,-243.04 525,-298.96 525,-298.96 525,-304.96 519,-310.96 513,-310.96"/>
<text xml:space="preserve" text-anchor="middle" x="452.25" y="-285.65" font-family="Segoe UI" font-size="13.00">ANALYTICS MARTS</text>
<text xml:space="preserve" text-anchor="middle" x="452.25" y="-267.65" font-family="Segoe UI" font-size="13.00">mart_*.csv</text>
<text xml:space="preserve" text-anchor="middle" x="452.25" y="-249.65" font-family="Segoe UI" font-size="13.00">(data/marts/)</text>
</g>
<!-- curated&#45;&gt;marts -->
<g id="edge2" class="edge">
<title>curated&#45;&gt;marts</title>
<path fill="none" stroke="#111827" stroke-width="1.2" d="M175.36,-400.27C182.1,-400.27 186.5,-400.27 186.5,-400.27 186.5,-400.27 186.5,-271 186.5,-271 186.5,-271 369.11,-271 369.11,-271"/>
<polygon fill="#111827" stroke="#111827" stroke-width="1.2" points="369.11,-273.8 377.11,-271 369.11,-268.2 369.11,-273.8"/>
</g>
<!-- feat -->
<g id="node4" class="node">
<title>feat</title>
<path fill="white" stroke="#111827" stroke-width="1.6" d="M563.25,-430.96C563.25,-430.96 341.25,-430.96 341.25,-430.96 335.25,-430.96 329.25,-424.96 329.25,-418.96 329.25,-418.96 329.25,-363.04 329.25,-363.04 329.25,-357.04 335.25,-351.04 341.25,-351.04 341.25,-351.04 563.25,-351.04 563.25,-351.04 569.25,-351.04 575.25,-357.04 575.25,-363.04 575.25,-363.04 575.25,-418.96 575.25,-418.96 575.25,-424.96 569.25,-430.96 563.25,-430.96"/>
<text xml:space="preserve" text-anchor="middle" x="452.25" y="-405.65" font-family="Segoe UI" font-size="13.00">FEATURE MART</text>
<text xml:space="preserve" text-anchor="middle" x="452.25" y="-387.65" font-family="Segoe UI" font-size="13.00">mart_ml_features_candidate_level.csv</text>
<text xml:space="preserve" text-anchor="middle" x="452.25" y="-369.65" font-family="Segoe UI" font-size="13.00">(data/marts/)</text>
</g>
<!-- curated&#45;&gt;feat -->
<g id="edge3" class="edge">
<title>curated&#45;&gt;feat</title>
<path fill="none" stroke="#111827" stroke-width="1.2" d="M175.12,-420.73C175.12,-420.73 318.87,-420.73 318.87,-420.73"/>
<polygon fill="#111827" stroke="#111827" stroke-width="1.2" points="318.87,-423.53 326.87,-420.73 318.87,-417.93 318.87,-423.53"/>
</g>
<!-- dash -->
<g id="node7" class="node">
<title>dash</title>
<path fill="#f8fafc" stroke="#111827" stroke-width="1.6" d="M1180.5,-335.96C1180.5,-335.96 977.25,-335.96 977.25,-335.96 971.25,-335.96 965.25,-329.96 965.25,-323.96 965.25,-323.96 965.25,-268.04 965.25,-268.04 965.25,-262.04 971.25,-256.04 977.25,-256.04 977.25,-256.04 1180.5,-256.04 1180.5,-256.04 1186.5,-256.04 1192.5,-262.04 1192.5,-268.04 1192.5,-268.04 1192.5,-323.96 1192.5,-323.96 1192.5,-329.96 1186.5,-335.96 1180.5,-335.96"/>
<text xml:space="preserve" text-anchor="middle" x="1078.88" y="-310.65" font-family="Segoe UI" font-size="13.00">OPTIONAL SERVING</text>
<text xml:space="preserve" text-anchor="middle" x="1078.88" y="-292.65" font-family="Segoe UI" font-size="13.00">Streamlit dashboard</text>
<text xml:space="preserve" text-anchor="middle" x="1078.88" y="-274.65" font-family="Segoe UI" font-size="13.00">(reads curated + marts + reports)</text>
</g>
<!-- curated&#45;&gt;dash -->
<g id="edge6" class="edge">
<title>curated&#45;&gt;dash</title>
<path fill="none" stroke="#111827" stroke-width="1.2" stroke-dasharray="5,2" d="M175.12,-442C396.8,-442 1078.5,-442 1078.5,-442 1078.5,-442 1078.5,-346.49 1078.5,-346.49"/>
<polygon fill="#111827" stroke="#111827" stroke-width="1.2" points="1081.3,-346.49 1078.5,-338.49 1075.7,-346.49 1081.3,-346.49"/>
</g>
<!-- dq -->
<g id="node9" class="node">
<title>dq</title>
<path fill="#f3f4f6" stroke="#111827" stroke-width="1.6" d="M535.5,-152.96C535.5,-152.96 369,-152.96 369,-152.96 363,-152.96 357,-146.96 357,-140.96 357,-140.96 357,-85.04 357,-85.04 357,-79.04 363,-73.04 369,-73.04 369,-73.04 535.5,-73.04 535.5,-73.04 541.5,-73.04 547.5,-79.04 547.5,-85.04 547.5,-85.04 547.5,-140.96 547.5,-140.96 547.5,-146.96 541.5,-152.96 535.5,-152.96"/>
<text xml:space="preserve" text-anchor="middle" x="452.25" y="-127.65" font-family="Segoe UI" font-size="13.00">DATA QUALITY</text>
<text xml:space="preserve" text-anchor="middle" x="452.25" y="-109.65" font-family="Segoe UI" font-size="13.00">schema + freshness checks</text>
<text xml:space="preserve" text-anchor="middle" x="452.25" y="-91.65" font-family="Segoe UI" font-size="13.00">(Great Expectations)</text>
</g>
<!-- curated&#45;&gt;dq -->
<g id="edge16" class="edge">
<title>curated&#45;&gt;dq</title>
<path fill="none" stroke="#111827" stroke-width="1.2" stroke-dasharray="5,2" d="M175.31,-410.5C217.13,-410.5 262.5,-410.5 262.5,-410.5 262.5,-410.5 262.5,-126.32 262.5,-126.32 262.5,-126.32 346.45,-126.32 346.45,-126.32"/>
<polygon fill="#111827" stroke="#111827" stroke-width="1.2" points="346.45,-129.12 354.45,-126.32 346.45,-123.52 346.45,-129.12"/>
<text xml:space="preserve" text-anchor="middle" x="263" y="-230.2" font-family="Times New Roman,serif" font-size="14.00">upgrade path</text>
</g>
<!-- marts&#45;&gt;dash -->
<g id="edge7" class="edge">
<title>marts&#45;&gt;dash</title>
<path fill="none" stroke="#111827" stroke-width="1.2" stroke-dasharray="5,2" d="M525.67,-264.54C525.67,-264.54 954.67,-264.54 954.67,-264.54"/>
<polygon fill="#111827" stroke="#111827" stroke-width="1.2" points="954.67,-267.34 962.67,-264.54 954.67,-261.74 954.67,-267.34"/>
</g>
<!-- wh -->
<g id="node10" class="node">
<title>wh</title>
<path fill="#f3f4f6" stroke="#111827" stroke-width="1.6" d="M840.38,-105.96C840.38,-105.96 700.12,-105.96 700.12,-105.96 694.12,-105.96 688.12,-99.96 688.12,-93.96 688.12,-93.96 688.12,-56.04 688.12,-56.04 688.12,-50.04 694.12,-44.04 700.12,-44.04 700.12,-44.04 840.38,-44.04 840.38,-44.04 846.38,-44.04 852.38,-50.04 852.38,-56.04 852.38,-56.04 852.38,-93.96 852.38,-93.96 852.38,-99.96 846.38,-105.96 840.38,-105.96"/>
<text xml:space="preserve" text-anchor="middle" x="770.25" y="-80.65" font-family="Segoe UI" font-size="13.00">WAREHOUSE</text>
<text xml:space="preserve" text-anchor="middle" x="770.25" y="-62.65" font-family="Segoe UI" font-size="13.00">Postgres / DWH tables</text>
</g>
<!-- marts&#45;&gt;wh -->
<g id="edge17" class="edge">
<title>marts&#45;&gt;wh</title>
<path fill="none" stroke="#111827" stroke-width="1.2" stroke-dasharray="5,2" d="M525.66,-243.54C619.65,-243.54 770.5,-243.54 770.5,-243.54 770.5,-243.54 770.5,-116.52 770.5,-116.52"/>
<polygon fill="#111827" stroke="#111827" stroke-width="1.2" points="773.3,-116.52 770.5,-108.52 767.7,-116.52 773.3,-116.52"/>
</g>
<!-- pred -->
<g id="node5" class="node">
<title>pred</title>
<path fill="white" stroke="#111827" stroke-width="1.6" d="M862.5,-370.96C862.5,-370.96 678,-370.96 678,-370.96 672,-370.96 666,-364.96 666,-358.96 666,-358.96 666,-285.04 666,-285.04 666,-279.04 672,-273.04 678,-273.04 678,-273.04 862.5,-273.04 862.5,-273.04 868.5,-273.04 874.5,-279.04 874.5,-285.04 874.5,-285.04 874.5,-358.96 874.5,-358.96 874.5,-364.96 868.5,-370.96 862.5,-370.96"/>
<text xml:space="preserve" text-anchor="middle" x="770.25" y="-345.65" font-family="Segoe UI" font-size="13.00">BASELINE SCORING OUTPUTS</text>
<text xml:space="preserve" text-anchor="middle" x="770.25" y="-327.65" font-family="Segoe UI" font-size="13.00">prediction_summary.csv</text>
<text xml:space="preserve" text-anchor="middle" x="770.25" y="-309.65" font-family="Segoe UI" font-size="13.00">winner.txt</text>
<text xml:space="preserve" text-anchor="middle" x="770.25" y="-291.65" font-family="Segoe UI" font-size="13.00">(reports/)</text>
</g>
<!-- feat&#45;&gt;pred -->
<g id="edge4" class="edge">
<title>feat&#45;&gt;pred</title>
<path fill="none" stroke="#111827" stroke-width="1.2" d="M575.65,-361C575.65,-361 655.42,-361 655.42,-361"/>
<polygon fill="#111827" stroke="#111827" stroke-width="1.2" points="655.42,-363.8 663.42,-361 655.42,-358.2 655.42,-363.8"/>
</g>
<!-- fs -->
<g id="node11" class="node">
<title>fs</title>
<path fill="#f3f4f6" stroke="#111827" stroke-width="1.6" d="M1149.38,-105.96C1149.38,-105.96 1008.38,-105.96 1008.38,-105.96 1002.38,-105.96 996.38,-99.96 996.38,-93.96 996.38,-93.96 996.38,-56.04 996.38,-56.04 996.38,-50.04 1002.38,-44.04 1008.38,-44.04 1008.38,-44.04 1149.38,-44.04 1149.38,-44.04 1155.38,-44.04 1161.38,-50.04 1161.38,-56.04 1161.38,-56.04 1161.38,-93.96 1161.38,-93.96 1161.38,-99.96 1155.38,-105.96 1149.38,-105.96"/>
<text xml:space="preserve" text-anchor="middle" x="1078.88" y="-80.65" font-family="Segoe UI" font-size="13.00">FEATURE STORE TABLE</text>
<text xml:space="preserve" text-anchor="middle" x="1078.88" y="-62.65" font-family="Segoe UI" font-size="13.00">versioned features</text>
</g>
<!-- feat&#45;&gt;fs -->
<g id="edge18" class="edge">
<title>feat&#45;&gt;fs</title>
<path fill="none" stroke="#111827" stroke-width="1.2" stroke-dasharray="5,2" d="M575.8,-400.96C704.79,-400.96 888.5,-400.96 888.5,-400.96 888.5,-400.96 888.5,-90.48 888.5,-90.48 888.5,-90.48 985.83,-90.48 985.83,-90.48"/>
<polygon fill="#111827" stroke="#111827" stroke-width="1.2" points="985.83,-93.28 993.83,-90.48 985.83,-87.68 985.83,-93.28"/>
</g>
<!-- viz -->
<g id="node6" class="node">
<title>viz</title>
<path fill="white" stroke="#111827" stroke-width="1.6" d="M890.25,-532.96C890.25,-532.96 650.25,-532.96 650.25,-532.96 644.25,-532.96 638.25,-526.96 638.25,-520.96 638.25,-520.96 638.25,-465.04 638.25,-465.04 638.25,-459.04 644.25,-453.04 650.25,-453.04 650.25,-453.04 890.25,-453.04 890.25,-453.04 896.25,-453.04 902.25,-459.04 902.25,-465.04 902.25,-465.04 902.25,-520.96 902.25,-520.96 902.25,-526.96 896.25,-532.96 890.25,-532.96"/>
<text xml:space="preserve" text-anchor="middle" x="770.25" y="-507.65" font-family="Segoe UI" font-size="13.00">VISUALIZATION</text>
<text xml:space="preserve" text-anchor="middle" x="770.25" y="-489.65" font-family="Segoe UI" font-size="13.00">candidates_probability_visualization.png</text>
<text xml:space="preserve" text-anchor="middle" x="770.25" y="-471.65" font-family="Segoe UI" font-size="13.00">(assets/)</text>
</g>
<!-- pred&#45;&gt;viz -->
<g id="edge5" class="edge">
<title>pred&#45;&gt;viz</title>
<path fill="none" stroke="#111827" stroke-width="1.2" d="M770.5,-371.46C770.5,-371.46 770.5,-442.48 770.5,-442.48"/>
<polygon fill="#111827" stroke="#111827" stroke-width="1.2" points="767.7,-442.48 770.5,-450.48 773.3,-442.48 767.7,-442.48"/>
</g>
<!-- pred&#45;&gt;dash -->
<g id="edge8" class="edge">
<title>pred&#45;&gt;dash</title>
<path fill="none" stroke="#111827" stroke-width="1.2" stroke-dasharray="5,2" d="M875.17,-304.5C875.17,-304.5 954.65,-304.5 954.65,-304.5"/>
<polygon fill="#111827" stroke="#111827" stroke-width="1.2" points="954.65,-307.3 962.65,-304.5 954.65,-301.7 954.65,-307.3"/>
</g>
<!-- api -->
<g id="node8" class="node">
<title>api</title>
<path fill="#f3f4f6" stroke="#111827" stroke-width="1.6" d="M184.75,-152.96C184.75,-152.96 28,-152.96 28,-152.96 22,-152.96 16,-146.96 16,-140.96 16,-140.96 16,-85.04 16,-85.04 16,-79.04 22,-73.04 28,-73.04 28,-73.04 184.75,-73.04 184.75,-73.04 190.75,-73.04 196.75,-79.04 196.75,-85.04 196.75,-85.04 196.75,-140.96 196.75,-140.96 196.75,-146.96 190.75,-152.96 184.75,-152.96"/>
<text xml:space="preserve" text-anchor="middle" x="106.38" y="-127.65" font-family="Segoe UI" font-size="13.00">AUTOMATED INGESTION</text>
<text xml:space="preserve" text-anchor="middle" x="106.38" y="-109.65" font-family="Segoe UI" font-size="13.00">API/HTML extraction</text>
<text xml:space="preserve" text-anchor="middle" x="106.38" y="-91.65" font-family="Segoe UI" font-size="13.00">(scheduled)</text>
</g>
<!-- api&#45;&gt;dq -->
<g id="edge9" class="edge">
<title>api&#45;&gt;dq</title>
<path fill="none" stroke="#111827" stroke-width="1.2" d="M197.25,-99.68C197.25,-99.68 346.42,-99.68 346.42,-99.68"/>
<polygon fill="#111827" stroke="#111827" stroke-width="1.2" points="346.42,-102.48 354.42,-99.68 346.42,-96.88 346.42,-102.48"/>
</g>
<!-- dq&#45;&gt;wh -->
<g id="edge10" class="edge">
<title>dq&#45;&gt;wh</title>
<path fill="none" stroke="#111827" stroke-width="1.2" d="M548.09,-89.5C548.09,-89.5 677.7,-89.5 677.7,-89.5"/>
<polygon fill="#111827" stroke="#111827" stroke-width="1.2" points="677.7,-92.3 685.7,-89.5 677.7,-86.7 677.7,-92.3"/>
</g>
<!-- wh&#45;&gt;dash -->
<g id="edge15" class="edge">
<title>wh&#45;&gt;dash</title>
<path fill="none" stroke="#111827" stroke-width="1.2" stroke-dasharray="5,2" d="M853.04,-75C911.88,-75 980.5,-75 980.5,-75 980.5,-75 980.5,-245.65 980.5,-245.65"/>
<polygon fill="#111827" stroke="#111827" stroke-width="1.2" points="977.7,-245.65 980.5,-253.65 983.3,-245.65 977.7,-245.65"/>
</g>
<!-- wh&#45;&gt;fs -->
<g id="edge11" class="edge">
<title>wh&#45;&gt;fs</title>
<path fill="none" stroke="#111827" stroke-width="1.2" d="M852.96,-59.52C852.96,-59.52 985.86,-59.52 985.86,-59.52"/>
<polygon fill="#111827" stroke="#111827" stroke-width="1.2" points="985.86,-62.32 993.86,-59.52 985.86,-56.72 985.86,-62.32"/>
</g>
<!-- rt -->
<g id="node12" class="node">
<title>rt</title>
<path fill="#f3f4f6" stroke="#111827" stroke-width="1.6" d="M1423.5,-77.96C1423.5,-77.96 1272.75,-77.96 1272.75,-77.96 1266.75,-77.96 1260.75,-71.96 1260.75,-65.96 1260.75,-65.96 1260.75,-28.04 1260.75,-28.04 1260.75,-22.04 1266.75,-16.04 1272.75,-16.04 1272.75,-16.04 1423.5,-16.04 1423.5,-16.04 1429.5,-16.04 1435.5,-22.04 1435.5,-28.04 1435.5,-28.04 1435.5,-65.96 1435.5,-65.96 1435.5,-71.96 1429.5,-77.96 1423.5,-77.96"/>
<text xml:space="preserve" text-anchor="middle" x="1348.12" y="-52.65" font-family="Segoe UI" font-size="13.00">RETRAINING DAG</text>
<text xml:space="preserve" text-anchor="middle" x="1348.12" y="-34.65" font-family="Segoe UI" font-size="13.00">scheduled model retrain</text>
</g>
<!-- fs&#45;&gt;rt -->
<g id="edge12" class="edge">
<title>fs&#45;&gt;rt</title>
<path fill="none" stroke="#111827" stroke-width="1.2" d="M1161.86,-61C1161.86,-61 1250.47,-61 1250.47,-61"/>
<polygon fill="#111827" stroke="#111827" stroke-width="1.2" points="1250.47,-63.8 1258.47,-61 1250.47,-58.2 1250.47,-63.8"/>
</g>
<!-- serve -->
<g id="node13" class="node">
<title>serve</title>
<path fill="#f3f4f6" stroke="#111827" stroke-width="1.6" d="M1684.5,-128.96C1684.5,-128.96 1515.75,-128.96 1515.75,-128.96 1509.75,-128.96 1503.75,-122.96 1503.75,-116.96 1503.75,-116.96 1503.75,-79.04 1503.75,-79.04 1503.75,-73.04 1509.75,-67.04 1515.75,-67.04 1515.75,-67.04 1684.5,-67.04 1684.5,-67.04 1690.5,-67.04 1696.5,-73.04 1696.5,-79.04 1696.5,-79.04 1696.5,-116.96 1696.5,-116.96 1696.5,-122.96 1690.5,-128.96 1684.5,-128.96"/>
<text xml:space="preserve" text-anchor="middle" x="1600.12" y="-103.65" font-family="Segoe UI" font-size="13.00">BATCH SCORING / SERVICE</text>
<text xml:space="preserve" text-anchor="middle" x="1600.12" y="-85.65" font-family="Segoe UI" font-size="13.00">batch inference or API</text>
</g>
<!-- rt&#45;&gt;serve -->
<g id="edge13" class="edge">
<title>rt&#45;&gt;serve</title>
<path fill="none" stroke="#111827" stroke-width="1.2" d="M1436.26,-72.5C1436.26,-72.5 1493.19,-72.5 1493.19,-72.5"/>
<polygon fill="#111827" stroke="#111827" stroke-width="1.2" points="1493.19,-75.3 1501.19,-72.5 1493.19,-69.7 1493.19,-75.3"/>
</g>
<!-- cicd -->
<g id="node14" class="node">
<title>cicd</title>
<path fill="#f3f4f6" stroke="#111827" stroke-width="1.6" d="M1428.75,-179.96C1428.75,-179.96 1267.5,-179.96 1267.5,-179.96 1261.5,-179.96 1255.5,-173.96 1255.5,-167.96 1255.5,-167.96 1255.5,-130.04 1255.5,-130.04 1255.5,-124.04 1261.5,-118.04 1267.5,-118.04 1267.5,-118.04 1428.75,-118.04 1428.75,-118.04 1434.75,-118.04 1440.75,-124.04 1440.75,-130.04 1440.75,-130.04 1440.75,-167.96 1440.75,-167.96 1440.75,-173.96 1434.75,-179.96 1428.75,-179.96"/>
<text xml:space="preserve" text-anchor="middle" x="1348.12" y="-154.65" font-family="Segoe UI" font-size="13.00">DOCKER + CI/CD</text>
<text xml:space="preserve" text-anchor="middle" x="1348.12" y="-136.65" font-family="Segoe UI" font-size="13.00">reproducible deployments</text>
</g>
<!-- cicd&#45;&gt;serve -->
<g id="edge14" class="edge">
<title>cicd&#45;&gt;serve</title>
<path fill="none" stroke="#111827" stroke-width="1.2" d="M1441.24,-123.5C1441.24,-123.5 1493.35,-123.5 1493.35,-123.5"/>
<polygon fill="#111827" stroke="#111827" stroke-width="1.2" points="1493.35,-126.3 1501.35,-123.5 1493.35,-120.7 1493.35,-126.3"/>
</g>
</g>
</svg>
