<?xml version="1.0" encoding="UTF-8" standalone="no"?>
<!DOCTYPE svg PUBLIC "-//W3C//DTD SVG 1.1//EN"
 "http://www.w3.org/Graphics/SVG/1.1/DTD/svg11.dtd">
<!-- Generated by graphviz version 14.1.1 (20251213.1925)
 -->
<!-- Title: ETL_DAG Pages: 1 -->
<svg width="724pt" height="480pt"
 viewBox="0.00 0.00 724.00 480.00" xmlns="http://www.w3.org/2000/svg" xmlns:xlink="http://www.w3.org/1999/xlink">
<g id="graph0" class="graph" transform="scale(1 1) rotate(0) translate(21.6 458.6)">
<title>ETL_DAG</title>
<polygon fill="white" stroke="none" points="-21.6,21.6 -21.6,-458.6 702.52,-458.6 702.52,21.6 -21.6,21.6"/>
<g id="clust1" class="cluster">
<title>cluster_group</title>
<path fill="white" stroke="#d1d5db" d="M401.42,-8C401.42,-8 567.21,-8 567.21,-8 573.21,-8 579.21,-14 579.21,-20 579.21,-20 579.21,-417 579.21,-417 579.21,-423 573.21,-429 567.21,-429 567.21,-429 401.42,-429 401.42,-429 395.42,-429 389.42,-423 389.42,-417 389.42,-417 389.42,-20 389.42,-20 389.42,-14 395.42,-8 401.42,-8"/>
<text xml:space="preserve" text-anchor="middle" x="471.67" y="-414.55" font-family="Segoe UI" font-size="11.00">TaskGroup: marts_and_features</text>
</g>
<!-- start -->
<g id="node1" class="node">
<title>start</title>
<ellipse fill="#f3f4f6" stroke="#111827" stroke-width="1.4" cx="31.67" cy="-204" rx="31.67" ry="20.26"/>
<text xml:space="preserve" text-anchor="middle" x="31.67" y="-201.62" font-family="Segoe UI" font-size="10.00">Start</text>
</g>
<!-- ing -->
<g id="node3" class="node">
<title>ing</title>
<path fill="white" stroke="#111827" stroke-width="1.4" d="M195.38,-232.57C195.38,-232.57 115.34,-232.57 115.34,-232.57 109.34,-232.57 103.34,-226.57 103.34,-220.57 103.34,-220.57 103.34,-187.43 103.34,-187.43 103.34,-181.43 109.34,-175.43 115.34,-175.43 115.34,-175.43 195.38,-175.43 195.38,-175.43 201.38,-175.43 207.38,-181.43 207.38,-187.43 207.38,-187.43 207.38,-220.57 207.38,-220.57 207.38,-226.57 201.38,-232.57 195.38,-232.57"/>
<text xml:space="preserve" text-anchor="middle" x="155.36" y="-215.88" font-family="Segoe UI" font-size="10.00">ingest_raw</text>
<text xml:space="preserve" text-anchor="middle" x="155.36" y="-201.62" font-family="Segoe UI" font-size="10.00">• validate raw CSV</text>
<text xml:space="preserve" text-anchor="middle" x="155.36" y="-187.38" font-family="Segoe UI" font-size="10.00">• load snapshot</text>
</g>
<!-- start&#45;&gt;ing -->
<g id="edge1" class="edge">
<title>start&#45;&gt;ing</title>
<path fill="none" stroke="#111827" stroke-width="1.2" d="M63.85,-204C63.85,-204 92.93,-204 92.93,-204"/>
<polygon fill="#111827" stroke="#111827" stroke-width="1.2" points="92.93,-206.8 100.93,-204 92.93,-201.2 92.93,-206.8"/>
</g>
<!-- finish -->
<g id="node2" class="node">
<title>finish</title>
<ellipse fill="#f3f4f6" stroke="#111827" stroke-width="1.4" cx="646.07" cy="-204" rx="34.85" ry="20.26"/>
<text xml:space="preserve" text-anchor="middle" x="646.07" y="-201.62" font-family="Segoe UI" font-size="10.00">Finish</text>
</g>
<!-- clean -->
<g id="node4" class="node">
<title>clean</title>
<path fill="white" stroke="#111827" stroke-width="1.4" d="M345.42,-253.95C345.42,-253.95 259.38,-253.95 259.38,-253.95 253.38,-253.95 247.38,-247.95 247.38,-241.95 247.38,-241.95 247.38,-166.05 247.38,-166.05 247.38,-160.05 253.38,-154.05 259.38,-154.05 259.38,-154.05 345.42,-154.05 345.42,-154.05 351.42,-154.05 357.42,-160.05 357.42,-166.05 357.42,-166.05 357.42,-241.95 357.42,-241.95 357.42,-247.95 351.42,-253.95 345.42,-253.95"/>
<text xml:space="preserve" text-anchor="middle" x="302.4" y="-237.25" font-family="Segoe UI" font-size="10.00">clean_transform</text>
<text xml:space="preserve" text-anchor="middle" x="302.4" y="-223" font-family="Segoe UI" font-size="10.00">• schema select</text>
<text xml:space="preserve" text-anchor="middle" x="302.4" y="-208.75" font-family="Segoe UI" font-size="10.00">• parse dates</text>
<text xml:space="preserve" text-anchor="middle" x="302.4" y="-194.5" font-family="Segoe UI" font-size="10.00">• type coercion</text>
<text xml:space="preserve" text-anchor="middle" x="302.4" y="-180.25" font-family="Segoe UI" font-size="10.00">• null handling</text>
<text xml:space="preserve" text-anchor="middle" x="302.4" y="-166" font-family="Segoe UI" font-size="10.00">• write curated CSV</text>
</g>
<!-- ing&#45;&gt;clean -->
<g id="edge2" class="edge">
<title>ing&#45;&gt;clean</title>
<path fill="none" stroke="#111827" stroke-width="1.2" d="M208.03,-204C208.03,-204 237.31,-204 237.31,-204"/>
<polygon fill="#111827" stroke="#111827" stroke-width="1.2" points="237.31,-206.8 245.31,-204 237.31,-201.2 237.31,-206.8"/>
</g>
<!-- m1 -->
<g id="node5" class="node">
<title>m1</title>
<path fill="white" stroke="#111827" stroke-width="1.4" d="M558.84,-52C558.84,-52 409.8,-52 409.8,-52 403.8,-52 397.8,-46 397.8,-40 397.8,-40 397.8,-28 397.8,-28 397.8,-22 403.8,-16 409.8,-16 409.8,-16 558.84,-16 558.84,-16 564.84,-16 570.84,-22 570.84,-28 570.84,-28 570.84,-40 570.84,-40 570.84,-46 564.84,-52 558.84,-52"/>
<text xml:space="preserve" text-anchor="middle" x="484.32" y="-31.62" font-family="Segoe UI" font-size="10.00">mart_candidate_state_vote_share</text>
</g>
<!-- clean&#45;&gt;m1 -->
<g id="edge3" class="edge">
<title>clean&#45;&gt;m1</title>
<path fill="none" stroke="#111827" stroke-width="1.2" d="M301.92,-153.45C301.92,-103.34 301.92,-34 301.92,-34 301.92,-34 387.31,-34 387.31,-34"/>
<polygon fill="#111827" stroke="#111827" stroke-width="1.2" points="387.31,-36.8 395.31,-34 387.31,-31.2 387.31,-36.8"/>
</g>
<!-- m2 -->
<g id="node6" class="node">
<title>m2</title>
<path fill="white" stroke="#111827" stroke-width="1.4" d="M559.21,-120C559.21,-120 409.42,-120 409.42,-120 403.42,-120 397.42,-114 397.42,-108 397.42,-108 397.42,-96 397.42,-96 397.42,-90 403.42,-84 409.42,-84 409.42,-84 559.21,-84 559.21,-84 565.21,-84 571.21,-90 571.21,-96 571.21,-96 571.21,-108 571.21,-108 571.21,-114 565.21,-120 559.21,-120"/>
<text xml:space="preserve" text-anchor="middle" x="484.32" y="-99.62" font-family="Segoe UI" font-size="10.00">mart_key_candidates_comparison</text>
</g>
<!-- clean&#45;&gt;m2 -->
<g id="edge4" class="edge">
<title>clean&#45;&gt;m2</title>
<path fill="none" stroke="#111827" stroke-width="1.2" d="M357.94,-165.37C383.36,-165.37 407.92,-165.37 407.92,-165.37 407.92,-165.37 407.92,-130.49 407.92,-130.49"/>
<polygon fill="#111827" stroke="#111827" stroke-width="1.2" points="410.72,-130.49 407.92,-122.49 405.12,-130.49 410.72,-130.49"/>
</g>
<!-- m3 -->
<g id="node7" class="node">
<title>m3</title>
<path fill="white" stroke="#111827" stroke-width="1.4" d="M543.46,-188C543.46,-188 425.17,-188 425.17,-188 419.17,-188 413.17,-182 413.17,-176 413.17,-176 413.17,-164 413.17,-164 413.17,-158 419.17,-152 425.17,-152 425.17,-152 543.46,-152 543.46,-152 549.46,-152 555.46,-158 555.46,-164 555.46,-164 555.46,-176 555.46,-176 555.46,-182 549.46,-188 543.46,-188"/>
<text xml:space="preserve" text-anchor="middle" x="484.32" y="-167.62" font-family="Segoe UI" font-size="10.00">mart_sample_size_variance</text>
</g>
<!-- clean&#45;&gt;m3 -->
<g id="edge5" class="edge">
<title>clean&#45;&gt;m3</title>
<path fill="none" stroke="#111827" stroke-width="1.2" d="M357.97,-176.68C357.97,-176.68 402.82,-176.68 402.82,-176.68"/>
<polygon fill="#111827" stroke="#111827" stroke-width="1.2" points="402.82,-179.48 410.82,-176.68 402.82,-173.88 402.82,-179.48"/>
</g>
<!-- m4 -->
<g id="node8" class="node">
<title>m4</title>
<path fill="white" stroke="#111827" stroke-width="1.4" d="M553.59,-256C553.59,-256 415.05,-256 415.05,-256 409.05,-256 403.05,-250 403.05,-244 403.05,-244 403.05,-232 403.05,-232 403.05,-226 409.05,-220 415.05,-220 415.05,-220 553.59,-220 553.59,-220 559.59,-220 565.59,-226 565.59,-232 565.59,-232 565.59,-244 565.59,-244 565.59,-250 559.59,-256 553.59,-256"/>
<text xml:space="preserve" text-anchor="middle" x="484.32" y="-235.62" font-family="Segoe UI" font-size="10.00">mart_polling_trends_timeseries</text>
</g>
<!-- clean&#45;&gt;m4 -->
<g id="edge6" class="edge">
<title>clean&#45;&gt;m4</title>
<path fill="none" stroke="#111827" stroke-width="1.2" d="M357.97,-236.97C357.97,-236.97 392.82,-236.97 392.82,-236.97"/>
<polygon fill="#111827" stroke="#111827" stroke-width="1.2" points="392.82,-239.78 400.82,-236.98 392.82,-234.18 392.82,-239.78"/>
</g>
<!-- m5 -->
<g id="node9" class="node">
<title>m5</title>
<path fill="white" stroke="#111827" stroke-width="1.4" d="M544.96,-324C544.96,-324 423.67,-324 423.67,-324 417.67,-324 411.67,-318 411.67,-312 411.67,-312 411.67,-300 411.67,-300 411.67,-294 417.67,-288 423.67,-288 423.67,-288 544.96,-288 544.96,-288 550.96,-288 556.96,-294 556.96,-300 556.96,-300 556.96,-312 556.96,-312 556.96,-318 550.96,-324 544.96,-324"/>
<text xml:space="preserve" text-anchor="middle" x="484.32" y="-303.62" font-family="Segoe UI" font-size="10.00">mart_pollster_transparency</text>
</g>
<!-- clean&#45;&gt;m5 -->
<g id="edge7" class="edge">
<title>clean&#45;&gt;m5</title>
<path fill="none" stroke="#111827" stroke-width="1.2" d="M320.92,-254.4C320.92,-280.1 320.92,-306 320.92,-306 320.92,-306 401.4,-306 401.4,-306"/>
<polygon fill="#111827" stroke="#111827" stroke-width="1.2" points="401.4,-308.8 409.4,-306 401.4,-303.2 401.4,-308.8"/>
</g>
<!-- fe -->
<g id="node10" class="node">
<title>fe</title>
<path fill="white" stroke="#111827" stroke-width="1.4" d="M523.21,-398.45C523.21,-398.45 445.42,-398.45 445.42,-398.45 439.42,-398.45 433.42,-392.45 433.42,-386.45 433.42,-386.45 433.42,-367.55 433.42,-367.55 433.42,-361.55 439.42,-355.55 445.42,-355.55 445.42,-355.55 523.21,-355.55 523.21,-355.55 529.21,-355.55 535.21,-361.55 535.21,-367.55 535.21,-367.55 535.21,-386.45 535.21,-386.45 535.21,-392.45 529.21,-398.45 523.21,-398.45"/>
<text xml:space="preserve" text-anchor="middle" x="484.32" y="-381.75" font-family="Segoe UI" font-size="10.00">build_ml_features</text>
<text xml:space="preserve" text-anchor="middle" x="484.32" y="-367.5" font-family="Segoe UI" font-size="10.00">(feature mart)</text>
</g>
<!-- clean&#45;&gt;fe -->
<g id="edge8" class="edge">
<title>clean&#45;&gt;fe</title>
<path fill="none" stroke="#111827" stroke-width="1.2" d="M283.92,-254.5C283.92,-305.57 283.92,-377 283.92,-377 283.92,-377 423.15,-377 423.15,-377"/>
<polygon fill="#111827" stroke="#111827" stroke-width="1.2" points="423.15,-379.8 431.15,-377 423.15,-374.2 423.15,-379.8"/>
</g>
<!-- m1&#45;&gt;finish -->
<g id="edge9" class="edge">
<title>m1&#45;&gt;finish</title>
<path fill="none" stroke="#111827" stroke-width="1.2" d="M571.49,-34C604.79,-34 634.92,-34 634.92,-34 634.92,-34 634.92,-174.35 634.92,-174.35"/>
<polygon fill="#111827" stroke="#111827" stroke-width="1.2" points="632.12,-174.35 634.92,-182.35 637.72,-174.35 632.12,-174.35"/>
</g>
<!-- m2&#45;&gt;finish -->
<g id="edge10" class="edge">
<title>m2&#45;&gt;finish</title>
<path fill="none" stroke="#111827" stroke-width="1.2" d="M558.92,-120.64C558.92,-148.73 558.92,-198.67 558.92,-198.67 558.92,-198.67 602.31,-198.67 602.31,-198.67"/>
<polygon fill="#111827" stroke="#111827" stroke-width="1.2" points="602.31,-201.47 610.31,-198.67 602.31,-195.87 602.31,-201.47"/>
</g>
<!-- m3&#45;&gt;finish -->
<g id="edge11" class="edge">
<title>m3&#45;&gt;finish</title>
<path fill="none" stroke="#111827" stroke-width="1.2" d="M555.93,-167.87C603.75,-167.87 657.92,-167.87 657.92,-167.87 657.92,-167.87 657.92,-174.43 657.92,-174.43"/>
<polygon fill="#111827" stroke="#111827" stroke-width="1.2" points="655.12,-174.43 657.92,-182.43 660.72,-174.43 655.12,-174.43"/>
</g>
<!-- m4&#45;&gt;finish -->
<g id="edge12" class="edge">
<title>m4&#45;&gt;finish</title>
<path fill="none" stroke="#111827" stroke-width="1.2" d="M561.92,-219.36C561.92,-213.88 561.92,-209.33 561.92,-209.33 561.92,-209.33 602.02,-209.33 602.02,-209.33"/>
<polygon fill="#111827" stroke="#111827" stroke-width="1.2" points="602.02,-212.13 610.02,-209.33 602.02,-206.53 602.02,-212.13"/>
</g>
<!-- m5&#45;&gt;finish -->
<g id="edge13" class="edge">
<title>m5&#45;&gt;finish</title>
<path fill="none" stroke="#111827" stroke-width="1.2" d="M557.41,-306C595.78,-306 634.92,-306 634.92,-306 634.92,-306 634.92,-233.48 634.92,-233.48"/>
<polygon fill="#111827" stroke="#111827" stroke-width="1.2" points="637.72,-233.48 634.92,-225.48 632.12,-233.48 637.72,-233.48"/>
</g>
<!-- fe&#45;&gt;finish -->
<g id="edge14" class="edge">
<title>fe&#45;&gt;finish</title>
<path fill="none" stroke="#111827" stroke-width="1.2" d="M535.46,-377C586.67,-377 657.92,-377 657.92,-377 657.92,-377 657.92,-233.33 657.92,-233.33"/>
<polygon fill="#111827" stroke="#111827" stroke-width="1.2" points="660.72,-233.33 657.92,-225.33 655.12,-233.33 660.72,-233.33"/>
</g>
</g>
</svg>
